<svg width="860" height="318" viewBox="0 0 860 318" fill="none" xmlns="http://www.w3.org/2000/svg">
<path d="M220.055 61C252.905 61 279.643 87.6804 279.644 120.488C279.644 153.296 252.905 179.977 220.055 179.977H61V155.696H220.055C239.522 155.696 255.362 139.899 255.362 120.488C255.362 101.078 239.522 85.2812 220.055 85.2812H61V61H220.055ZM798 85.2812H638.945C619.478 85.2812 603.638 101.078 603.638 120.488C603.638 139.899 619.478 155.696 638.945 155.696H798V179.977H638.945C606.08 179.977 579.356 153.296 579.356 120.488C579.357 87.6804 606.095 61 638.945 61H798V85.2812ZM556.105 85.2812C530.111 85.2812 511.857 96.7792 492.532 108.948C486.262 112.905 479.906 116.889 473.278 120.445C479.906 124.002 486.262 127.987 492.532 131.943C511.857 144.112 530.111 155.61 556.105 155.61V179.892C523.098 179.892 499.988 165.336 479.592 152.496C462.638 141.827 447.998 132.601 430.059 132.601C412.119 132.601 397.479 141.813 380.525 152.496C360.129 165.336 337.019 179.892 304.012 179.892V155.61C330.007 155.61 348.26 144.112 367.585 131.943C373.855 127.987 380.211 124.002 386.838 120.445C380.211 116.889 373.855 112.904 367.585 108.948C348.26 96.7792 330.007 85.2813 304.012 85.2812V61C337.019 61.0001 360.129 75.5546 380.525 88.4092C397.479 99.0785 412.119 108.305 430.059 108.305V108.291C447.998 108.291 462.638 99.0781 479.592 88.3945C499.988 75.5542 523.098 61 556.105 61V85.2812Z" fill="#0E1020"/>
<path d="M161.421 255.869V231.799H166.747V255.869H161.421Z" fill="#0E1020"/>
<path d="M172.081 255.869V231.799H179.66L186.591 245.319L188.776 250.099H188.81L190.995 245.319L197.926 231.799H205.505V255.869H200.418V237.535L198.199 242.007L191.063 255.869H186.523L183.45 249.894L179.353 242.007L177.168 237.535V255.869H172.081Z" fill="#0E1020"/>
<path d="M210.847 255.869V231.799H227.133C232.732 231.799 235.975 234.496 235.975 239.652C235.975 244.841 232.698 247.504 227.133 247.504H216.173V255.869H210.847ZM226.177 243.339C228.976 243.339 230.41 242.076 230.41 239.652C230.41 237.228 228.976 235.964 226.177 235.964H216.173V243.339H226.177Z" fill="#0E1020"/>
<path d="M255.174 256.415C244.556 256.415 238.923 251.874 238.923 243.817C238.923 235.76 244.556 231.253 255.174 231.253C265.758 231.253 271.391 235.828 271.391 243.817C271.391 251.874 265.758 256.415 255.174 256.415ZM255.174 251.943C262.31 251.943 265.792 249.109 265.792 243.817C265.792 238.525 262.276 235.725 255.174 235.725C248.004 235.725 244.522 238.559 244.522 243.851C244.522 249.143 248.004 251.943 255.174 251.943Z" fill="#0E1020"/>
<path d="M288.374 256.415C279.087 256.415 274.922 253.65 274.785 248.05H280.419C280.589 251.089 283.013 252.557 288.442 252.557C293.734 252.557 295.953 251.499 295.953 249.006C295.953 247.095 294.929 246.241 292.061 245.968L283.252 245.319C277.653 244.807 275.4 242.724 275.4 238.696C275.4 233.814 279.394 231.253 288.237 231.253C297.216 231.253 301.177 233.848 301.484 239.413H295.851C295.577 236.306 293.358 235.111 288.237 235.111C282.979 235.111 280.965 236.135 280.965 238.354C280.965 240.164 282.126 240.881 284.891 241.154L293.666 241.803C299.333 242.349 301.518 244.397 301.518 248.665C301.518 253.854 297.319 256.415 288.374 256.415Z" fill="#0E1020"/>
<path d="M318.838 256.415C309.552 256.415 305.386 253.65 305.25 248.05H310.883C311.054 251.089 313.478 252.557 318.906 252.557C324.198 252.557 326.417 251.499 326.417 249.006C326.417 247.095 325.393 246.241 322.525 245.968L313.717 245.319C308.118 244.807 305.864 242.724 305.864 238.696C305.864 233.814 309.859 231.253 318.702 231.253C327.681 231.253 331.641 233.848 331.948 239.413H326.315C326.042 236.306 323.823 235.111 318.702 235.111C313.444 235.111 311.429 236.135 311.429 238.354C311.429 240.164 312.59 240.881 315.356 241.154L324.13 241.803C329.797 242.349 331.982 244.397 331.982 248.665C331.982 253.854 327.783 256.415 318.838 256.415Z" fill="#0E1020"/>
<path d="M336.539 255.869V231.799H341.865V255.869H336.539Z" fill="#0E1020"/>
<path d="M347.199 255.869V231.799H364.645C369.493 231.799 372.225 234.087 372.225 238.081C372.225 240.608 370.927 242.417 368.606 243.134C371.371 243.885 372.805 245.968 372.805 249.075C372.805 253.445 370.04 255.869 364.987 255.869H347.199ZM363.519 252.113C365.977 252.113 367.24 250.884 367.24 248.699C367.24 246.412 365.943 245.251 363.519 245.251H352.525V252.113H363.519ZM363.007 241.768C365.362 241.768 366.66 240.642 366.66 238.662C366.66 236.647 365.362 235.555 363.007 235.555H352.525V241.768H363.007Z" fill="#0E1020"/>
<path d="M377.23 255.869V231.799H382.556V251.294H397.373V255.869H377.23Z" fill="#0E1020"/>
<path d="M400.926 255.869V231.799H423.152V235.862H406.252V241.529H422.606V245.524H406.252V251.806H423.152V255.869H400.926Z" fill="#0E1020"/>
<path d="M430.763 256.313C428.475 256.313 427.075 255.118 427.075 253.24C427.075 251.362 428.509 250.201 430.763 250.201C433.05 250.201 434.382 251.396 434.382 253.24C434.382 255.152 433.05 256.313 430.763 256.313Z" fill="#0E1020"/>
<path d="M447.643 255.869V231.799H463.211C471.541 231.799 475.98 236.238 475.98 243.817C475.98 251.465 471.541 255.869 463.211 255.869H447.643ZM462.392 251.499C467.513 251.499 470.415 249.075 470.415 243.817C470.415 238.559 467.479 236.169 462.392 236.169H452.969V251.499H462.392Z" fill="#0E1020"/>
<path d="M480.374 255.869V231.799H502.6V235.862H485.7V241.529H502.054V245.524H485.7V251.806H502.6V255.869H480.374Z" fill="#0E1020"/>
<path d="M507.104 255.869V231.799H512.431V251.294H527.248V255.869H507.104Z" fill="#0E1020"/>
<path d="M530.801 255.869V231.799H536.127V255.869H530.801Z" fill="#0E1020"/>
<path d="M551.532 255.869L539.412 231.799H545.831L551.874 244.602C552.864 246.617 553.956 248.836 554.844 250.748C555.732 248.802 556.824 246.582 557.78 244.636L563.857 231.799H570.276L558.156 255.869H551.532Z" fill="#0E1020"/>
<path d="M573.525 255.869V231.799H595.751V235.862H578.851V241.529H595.205V245.524H578.851V251.806H595.751V255.869H573.525Z" fill="#0E1020"/>
<path d="M600.256 255.869V231.799H616.985C622.413 231.799 625.384 234.087 625.384 238.73C625.384 241.768 623.847 243.851 621.321 244.636C623.472 245.148 624.598 246.582 624.94 249.484L625.486 253.479L625.896 255.869H620.433L620.057 253.513L619.614 250.201C619.306 247.88 618.214 246.992 615.722 246.992H605.582V255.869H600.256ZM615.722 242.929C618.419 242.929 619.819 241.7 619.819 239.379C619.819 237.023 618.419 235.862 615.619 235.862H605.582V242.929H615.722Z" fill="#0E1020"/>
<path d="M630.353 255.869V231.799H652.579V235.862H635.679V241.529H652.033V245.524H635.679V251.806H652.579V255.869H630.353Z" fill="#0E1020"/>
<path d="M657.083 255.869V231.799H672.652C680.982 231.799 685.421 236.238 685.421 243.817C685.421 251.465 680.982 255.869 672.652 255.869H657.083ZM671.833 251.499C676.954 251.499 679.856 249.075 679.856 243.817C679.856 238.559 676.92 236.169 671.833 236.169H662.41V251.499H671.833Z" fill="#0E1020"/>
<path d="M692.054 256.313C689.767 256.313 688.367 255.118 688.367 253.24C688.367 251.362 689.801 250.201 692.054 250.201C694.342 250.201 695.673 251.396 695.673 253.24C695.673 255.152 694.342 256.313 692.054 256.313Z" fill="#0E1020"/>
</svg>
